# xmcd
#
# Track frame offsets:
#	150
#	20439
#	43171
#	63323
#	82633
#	103710
#	121437
#	136314
#	154582
#	176357
#	195777
#	213401
#	240225
#	261433
#	278596
#	296153
#
# Disc length: 4196 seconds
#
# Revision: 1
# Processed by: cddbd v1.5PL3 Copyright (c) Steve Scherf et al.
# Submitted via: audiograbber 1.83.01
#
DISCID=d4106210
DTITLE=Michael Bolton - Love songs
DYEAR=1900
DGENRE=
TTITLE0=SoulProvider
TTITLE1=SaidILoveYouButILied
TTITLE2=MissingYouNow
TTITLE3=HowCanISupposedToLiveWithoutYou
TTITLE4=SexualHealing
TTITLE5=TiredOfBeingAlone
TTITLE6=MyGirl
TTITLE7=WhatAWonderfulWorld
TTITLE8=LikeARollingStone
TTITLE9=WhatYouWon'tDoForLove
TTITLE10=That'sThatLoveIsAllAbout
TTITLE11=OnceInALifeTime
TTITLE12=WhiterShadeOfPale
TTITLE13=WhenAManLovesAWoman
TTITLE14=WarmAndTenderLove
TTITLE15=ALoveSoBeautiful
EXTD=
EXTT0=
EXTT1=
EXTT2=
EXTT3=
EXTT4=
EXTT5=
EXTT6=
EXTT7=
EXTT8=
EXTT9=
EXTT10=
EXTT11=
EXTT12=
EXTT13=
EXTT14=
EXTT15=
PLAYORDER=
